<svg width="25" height="24" viewBox="0 0 25 24" fill="none" xmlns="http://www.w3.org/2000/svg">
<path d="M12.0015 7.89L10.9315 9.75C10.6915 10.16 10.8915 10.5 11.3615 10.5H12.6315C13.1115 10.5 13.3015 10.84 13.0615 11.25L12.0015 13.11" stroke="#9F9F9F" stroke-width="1.5" stroke-linecap="round" stroke-linejoin="round"/>
<path d="M8.30145 18.04V16.88C6.00145 15.49 4.11145 12.78 4.11145 9.9C4.11145 4.95 8.66145 1.07 13.8015 2.19C16.0615 2.69 18.0414 4.19 19.0714 6.26C21.1614 10.46 18.9614 14.92 15.7314 16.87V18.03C15.7314 18.32 15.8415 18.99 14.7715 18.99H9.26145C8.16145 19 8.30145 18.57 8.30145 18.04Z" stroke="#9F9F9F" stroke-width="1.5" stroke-linecap="round" stroke-linejoin="round"/>
<path d="M8.50146 22C10.7915 21.35 13.2115 21.35 15.5015 22" stroke="#9F9F9F" stroke-width="1.5" stroke-linecap="round" stroke-linejoin="round"/>
</svg>
